<svg xmlns="http://www.w3.org/2000/svg" width="1200" height="720" viewBox="0 0 1200 720">
  <rect width="1200" height="720" fill="#f5f7fb"/>
  <rect x="40" y="35" width="1120" height="650" rx="26" fill="#ffffff" stroke="#d8dee9"/>
  <text x="80" y="92" font-family="Arial, sans-serif" font-size="34" font-weight="700" fill="#1f2937">Retail Sales Performance Dashboard</text>
  <text x="80" y="124" font-family="Arial, sans-serif" font-size="16" fill="#64748b">Excel / Power BI style executive dashboard preview for sales, profit, margin and regional performance</text>

  <g font-family="Arial, sans-serif">
    <rect x="80" y="165" width="235" height="110" rx="18" fill="#eef6ff" stroke="#c7ddff"/>
    <text x="105" y="205" font-size="14" fill="#64748b">TOTAL SALES</text>
    <text x="105" y="245" font-size="34" font-weight="700" fill="#0f172a">$27,845</text>

    <rect x="340" y="165" width="235" height="110" rx="18" fill="#f0fdf4" stroke="#bbf7d0"/>
    <text x="365" y="205" font-size="14" fill="#64748b">TOTAL PROFIT</text>
    <text x="365" y="245" font-size="34" font-weight="700" fill="#0f172a">$5,544</text>

    <rect x="600" y="165" width="235" height="110" rx="18" fill="#fff7ed" stroke="#fed7aa"/>
    <text x="625" y="205" font-size="14" fill="#64748b">PROFIT MARGIN</text>
    <text x="625" y="245" font-size="34" font-weight="700" fill="#0f172a">19.9%</text>

    <rect x="860" y="165" width="235" height="110" rx="18" fill="#f8f5ff" stroke="#ddd6fe"/>
    <text x="885" y="205" font-size="14" fill="#64748b">TOTAL ORDERS</text>
    <text x="885" y="245" font-size="34" font-weight="700" fill="#0f172a">40</text>
  </g>

  <rect x="80" y="315" width="510" height="300" rx="22" fill="#ffffff" stroke="#e2e8f0"/>
  <text x="110" y="360" font-family="Arial, sans-serif" font-size="20" font-weight="700" fill="#1f2937">Sales by Region</text>
  <g font-family="Arial, sans-serif" font-size="14" fill="#475569">
    <text x="110" y="410">NSW</text><rect x="165" y="392" width="350" height="24" rx="8" fill="#2563eb"/><text x="528" y="410">$9.7k</text>
    <text x="110" y="455">WA</text><rect x="165" y="437" width="300" height="24" rx="8" fill="#3b82f6"/><text x="478" y="455">$8.5k</text>
    <text x="110" y="500">VIC</text><rect x="165" y="482" width="245" height="24" rx="8" fill="#60a5fa"/><text x="423" y="500">$6.2k</text>
    <text x="110" y="545">QLD</text><rect x="165" y="527" width="175" height="24" rx="8" fill="#93c5fd"/><text x="353" y="545">$4.3k</text>
  </g>

  <rect x="625" y="315" width="470" height="300" rx="22" fill="#ffffff" stroke="#e2e8f0"/>
  <text x="655" y="360" font-family="Arial, sans-serif" font-size="20" font-weight="700" fill="#1f2937">Monthly Sales Trend</text>
  <polyline points="670,545 725,505 780,520 835,470 890,445 945,410 1000,430 1055,385" fill="none" stroke="#16a34a" stroke-width="6" stroke-linecap="round" stroke-linejoin="round"/>
  <g fill="#16a34a">
    <circle cx="670" cy="545" r="7"/><circle cx="725" cy="505" r="7"/><circle cx="780" cy="520" r="7"/><circle cx="835" cy="470" r="7"/>
    <circle cx="890" cy="445" r="7"/><circle cx="945" cy="410" r="7"/><circle cx="1000" cy="430" r="7"/><circle cx="1055" cy="385" r="7"/>
  </g>
  <line x1="660" y1="560" x2="1065" y2="560" stroke="#cbd5e1"/>
  <line x1="660" y1="380" x2="660" y2="560" stroke="#cbd5e1"/>
  <g font-family="Arial, sans-serif" font-size="12" fill="#64748b">
    <text x="662" y="585">Jan</text><text x="717" y="585">Feb</text><text x="772" y="585">Mar</text><text x="827" y="585">Apr</text>
    <text x="882" y="585">May</text><text x="937" y="585">Jun</text><text x="992" y="585">Jul</text><text x="1047" y="585">Aug</text>
  </g>
</svg>
